<svg xmlns="http://www.w3.org/2000/svg" xmlns:svg="http://www.w3.org/2000/svg" xmlns:xlink="http://www.w3.org/1999/xlink" version="1.0" height="490pt" width="810pt" viewBox="364.9999999999998 47 818 496" ><defs><style type="text/css">
            @font-face {
                font-family: 'lt_regular';
                src: url('https://app.creately.com/d/assets/fonts/lato/lt-regular-webfont.woff2') format('woff2'),
                    url('https://app.creately.com/d/assets/fonts/lato/lt-regular-webfont.woff') format('woff');
                font-weight: normal;
                font-style: normal;
            }
            @font-face {
                font-family: 'noto_regular';
                src: url('https://app.creately.com/d/assets/fonts/noto/noto-regular.woff') format('woff'),
                     url('https://app.creately.com/d/assets/fonts/noto/noto-regular.woff2') format('woff2');
                font-weight: normal;
                font-style: normal;
            }
        p {
            margin: 0;
        }
        </style></defs><defs>
        <style>
            span{ display: inline-block; }
            
        </style>
        
        </defs><g id="23Za6i7Yrbs"><g transform="translate(369.9999999999998 50)"><rect x="0" y="0" width="810" height="490" fill="rgb(28,59,93)" stroke="rgba(126,126,126,0)" stroke-width="2" stroke-linecap="round" stroke-linejoin="round" stroke-dasharray="0 0"/></g><g transform="translate(379.9999999999998, 285.80000019073486) rotate(0, 395, 9.199999809265137)" width="790" height="18.399999618530273"><text text-decoration="none" x="395" fill="#4b4b4b" font-size="10pt" font-family="noto_regular"  y="14.40000057220459"></text><text text-decoration="none" x="395" fill="#4b4b4b" font-size="10pt" font-family="noto_regular"  y="32.80000019073486"></text></g></g><g id="ImENp9xcfJn"><g transform="translate(439.9999999999999 100)"><rect x="0" y="0" width="90" height="90" fill="rgb(84,197,199)" stroke="rgba(126,126,126,0)" stroke-width="2" stroke-linecap="round" stroke-linejoin="round" stroke-dasharray="0 0"/></g><g transform="translate(459.76999999999987, 135.8) rotate(0, 25.23, 9.2)" width="50.46" height="18.4"><text text-decoration="none" x="0.004999618530273864" fill="#ffffff" font-size="10pt" font-family="lt_regular"  y="14.40000057220459">Paciente</text><text text-decoration="none" x="50.45500038146973" fill="#4b4b4b" font-size="10pt" font-family="noto_regular"  y="14.40000057220459"></text></g></g><g id="Di8z5YwUNMk"><g transform="translate(440 420)"><rect x="0" y="0" width="90" height="90" fill="rgb(84,197,199)" stroke="rgba(126,126,126,0)" stroke-width="2" stroke-linecap="round" stroke-linejoin="round" stroke-dasharray="0 0"/></g><g transform="translate(450.84000000000003, 446.6) rotate(0, 34.16, 18.4)" width="68.32" height="36.8"><text text-decoration="none" x="0.003749165534969734" fill="rgb(75, 75, 75)" font-size="10pt" font-family="lt_regular"  y="14.40000057220459">Personal&#160;</text><text text-decoration="none" x="53.81625083446502" fill="rgb(75, 75, 75)" font-size="10pt" font-family="lt_regular"  y="14.40000057220459">de&#160;</text><text text-decoration="none" x="9.416250023841854" fill="rgb(75, 75, 75)" font-size="10pt" font-family="lt_regular"  y="32.80000019073486">la&#160;</text><text text-decoration="none" x="22.59124997615814" fill="rgb(75, 75, 75)" font-size="10pt" font-family="lt_regular"  y="32.80000019073486">cl&#xED;nica</text><text text-decoration="none" x="58.90374997615814" fill="#4b4b4b" font-size="10pt" font-family="noto_regular"  y="32.80000019073486"></text></g></g><g id="xzHiEBqrlDp"><g transform="translate(1000 100)"><rect x="0" y="0" width="90" height="90" fill="rgb(84,197,199)" stroke="rgba(126,126,126,0)" stroke-width="2" stroke-linecap="round" stroke-linejoin="round" stroke-dasharray="0 0"/></g><g transform="translate(1013.655, 126.6) rotate(0, 31.345, 18.4)" width="62.69" height="36.8"><text text-decoration="none" x="0.001250119209288414" fill="rgb(75, 75, 75)" font-size="10pt" font-family="lt_regular"  y="14.40000057220459">Horario&#160;</text><text text-decoration="none" x="48.21374949932098" fill="rgb(75, 75, 75)" font-size="10pt" font-family="lt_regular"  y="14.40000057220459">en&#160;</text><text text-decoration="none" x="17.63249942779541" fill="rgb(75, 75, 75)" font-size="10pt" font-family="lt_regular"  y="32.80000019073486">l&#xED;nea</text><text text-decoration="none" x="45.05750057220459" fill="#4b4b4b" font-size="10pt" font-family="noto_regular"  y="32.80000019073486"></text></g></g><g id="zuawwiAWTw0"><g transform="translate(1010 420)"><rect x="0" y="0" width="90" height="90" fill="rgb(84,197,199)" stroke="rgba(126,126,126,0)" stroke-width="2" stroke-linecap="round" stroke-linejoin="round" stroke-dasharray="0 0"/></g><g transform="translate(1034.38, 455.8) rotate(0, 20.62, 9.2)" width="41.24" height="18.4"><text text-decoration="none" x="0.0012503814697275573" fill="#4b4b4b" font-size="10pt" font-family="lt_regular"  y="14.40000057220459">Doctor</text><text text-decoration="none" x="41.23874961853028" fill="#4b4b4b" font-size="10pt" font-family="noto_regular"  y="14.40000057220459"></text></g></g><g id="Rlyuc984LOS"><g transform="translate(710 230)"><ellipse cx="50" cy="50" rx="50" ry="50" fill="rgb(242,124,145)" stroke="#ffffff" stroke-width="2" stroke-linecap="round" stroke-linejoin="round" stroke-dasharray="0 0"/><path d="M 1.0102051443364388,40 L 98.98979485566356,40 M 1.0102051443364388,40 Z" fill="rgb(242,124,145)" stroke="#ffffff" stroke-width="2" stroke-linecap="round" stroke-linejoin="round" stroke-dasharray="0 0"/></g><g transform="translate(751.625, 246.6) rotate(0, 8.375, 8.4)" width="16.75" height="16.8"><text text-decoration="none" x="0" fill="#ffffff" font-size="9pt" font-family="lt_regular"  y="12.800000548362732">0.0</text><text text-decoration="none" x="16.75" fill="#4b4b4b" font-size="10pt" font-family="noto_regular"  y="12.800000548362732"></text></g><g transform="translate(720.78, 250) rotate(0, 39.22, 32)" width="78.44" height="64"><text text-decoration="none" x="39.22" fill="#4b4b4b" font-size="10pt" font-family="noto_regular"  y="14.40000057220459"></text><text text-decoration="none" x="11.776248903274535" fill="#4b4b4b" font-size="8pt" font-family="noto_regular"  y="29.600000143051147">Sistema&#160;</text><text text-decoration="none" x="54.088751287460326" fill="#4b4b4b" font-size="8pt" font-family="noto_regular"  y="29.600000143051147">de&#160;</text><text text-decoration="none" x="10.313749284744262" fill="#4b4b4b" font-size="8pt" font-family="noto_regular"  y="44.799999713897705">reservas&#160;</text><text text-decoration="none" x="55.5512509059906" fill="#4b4b4b" font-size="8pt" font-family="noto_regular"  y="44.799999713897705">de&#160;</text><text text-decoration="none" x="0.0012499999999988631" fill="#4b4b4b" font-size="8pt" font-family="noto_regular"  y="59.99999928474426">cl&#xED;nicas&#160;</text><text text-decoration="none" x="38.95124933242798" fill="#4b4b4b" font-size="8pt" font-family="noto_regular"  y="59.99999928474426">en&#160;</text><text text-decoration="none" x="54.33874961853027" fill="#4b4b4b" font-size="8pt" font-family="noto_regular"  y="59.99999928474426">l&#xED;nea</text><text text-decoration="none" x="78.43875" fill="#4b4b4b" font-size="10pt" font-family="noto_regular"  y="59.99999928474426"></text></g></g><g id="McocdTidusz"><mask id="b424e" x="516" y="131" width="239" height="116" maskUnits="userSpaceOnUse"><rect x="516" y="131" width="239" height="116" fill="white" /><rect x="630.5351775564599" y="123.6" width="98.18" height="42.8" fill="black" /></mask><g mask="url(#b424e)"><path d="M 530,145 L 741.25,145 L 741,233" fill="none" stroke="#F7CA18" stroke-width="2" stroke-linecap="round" stroke-linejoin="round" stroke-dasharray="0 0"/><path d="M 530,145 L 538.695652173913,150.75 L 538.695652173913,139.25 Z" fill="rgb(247,202,24)" stroke="#F7CA18" stroke-width="2" stroke-linecap="round" stroke-linejoin="round"/><path d="M 741,233 L 746.75,224.30434782608697 L 735.25,224.30434782608697 Z" fill="rgb(247,202,24)" stroke="#F7CA18" stroke-width="2" stroke-linecap="round" stroke-linejoin="round"/></g><g transform="translate(633.5351775564599, 126.6)" width="92.18" height="36.8"><rect x="-2.5" y="0" width="97.17499876022339" height="39.29999923706055" fill="#F7CA18" rx="5"/><text text-decoration="none" x="0.0025006198883090747" fill="rgb(255, 255, 255)" font-size="10pt" font-family="lt_regular"  y="14.40000057220459">Notificaci&#xF3;n&#160;</text><text text-decoration="none" x="74.26499923706055" fill="rgb(255, 255, 255)" font-size="10pt" font-family="lt_regular"  y="14.40000057220459">de&#160;</text><text text-decoration="none" x="92.1774993801117" fill="rgb(255, 255, 255)" font-size="10pt" font-family="lt_regular"  y="14.40000057220459"></text><text text-decoration="none" x="5.896247711181644" fill="rgb(255, 255, 255)" font-size="10pt" font-family="lt_regular"  y="32.80000019073486">programaci&#xF3;n</text><text text-decoration="none" x="86.28375228881836" fill="#4b4b4b" font-size="10pt" font-family="noto_regular"  y="32.80000019073486"></text></g></g><g id="bVCBoRR9ar0"><mask id="af221" x="471" y="176" width="256" height="99" maskUnits="userSpaceOnUse"><rect x="471" y="176" width="256" height="99" fill="white" /><rect x="514.2850214158249" y="239.76406247651775" width="98.18" height="42.8" fill="black" /></mask><g mask="url(#af221)"><path d="M 485,190 L 484.9999999999999,261.25 L 713,261" fill="none" stroke="#F7CA18" stroke-width="2" stroke-linecap="round" stroke-linejoin="round" stroke-dasharray="0 0"/><path d="M 713,261 L 704.304347826087,255.25 L 704.304347826087,266.75 Z" fill="rgb(247,202,24)" stroke="#F7CA18" stroke-width="2" stroke-linecap="round" stroke-linejoin="round"/></g><g transform="translate(517.2850214158249, 242.76406247651775)" width="92.18" height="36.8"><rect x="-2.5" y="0" width="97.17499876022339" height="39.29999923706055" fill="#F7CA18" rx="5"/><text text-decoration="none" x="0.0025006198883090747" fill="rgb(255, 255, 255)" font-size="10pt" font-family="lt_regular"  y="14.40000057220459">Notificaci&#xF3;n&#160;</text><text text-decoration="none" x="74.26499923706055" fill="rgb(255, 255, 255)" font-size="10pt" font-family="lt_regular"  y="14.40000057220459">de&#160;</text><text text-decoration="none" x="92.1774993801117" fill="rgb(255, 255, 255)" font-size="10pt" font-family="lt_regular"  y="14.40000057220459"></text><text text-decoration="none" x="5.896247711181644" fill="rgb(255, 255, 255)" font-size="10pt" font-family="lt_regular"  y="32.80000019073486">programaci&#xF3;n</text><text text-decoration="none" x="86.28375228881836" fill="#4b4b4b" font-size="10pt" font-family="noto_regular"  y="32.80000019073486"></text></g></g><g id="PeCVm1gTzNh"><mask id="52b69" x="765" y="131" width="249" height="116" maskUnits="userSpaceOnUse"><rect x="765" y="131" width="249" height="116" fill="white" /><rect x="791.2098224435401" y="132.8" width="108.33" height="24.4" fill="black" /></mask><g mask="url(#52b69)"><path d="M 1000,145 L 778.75,145 L 779,233" fill="none" stroke="#F7CA18" stroke-width="2" stroke-linecap="round" stroke-linejoin="round" stroke-dasharray="0 0"/><path d="M 1000,145 L 991.304347826087,139.25 L 991.304347826087,150.75 Z" fill="rgb(247,202,24)" stroke="#F7CA18" stroke-width="2" stroke-linecap="round" stroke-linejoin="round"/><path d="M 779,233 L 784.75,224.30434782608697 L 773.25,224.30434782608697 Z" fill="rgb(247,202,24)" stroke="#F7CA18" stroke-width="2" stroke-linecap="round" stroke-linejoin="round"/></g><g transform="translate(794.2098224435401, 135.8)" width="102.33" height="18.4"><rect x="-2.5" y="0" width="107.32499861717224" height="20.899999618530273" fill="#F7CA18" rx="5"/><text text-decoration="none" x="0.002500691413878542" fill="#ffffff" font-size="10pt" font-family="lt_regular"  y="14.40000057220459">Horario&#160;</text><text text-decoration="none" x="48.21500007152557" fill="#ffffff" font-size="10pt" font-family="lt_regular"  y="14.40000057220459">preferido</text><text text-decoration="none" x="102.32749930858611" fill="#4b4b4b" font-size="10pt" font-family="noto_regular"  y="14.40000057220459"></text></g></g><g id="OZUOh0alaFK"><mask id="71e9d" x="793" y="176" width="266" height="99" maskUnits="userSpaceOnUse"><rect x="793" y="176" width="266" height="99" fill="white" /><rect x="912.634980346015" y="239.76242119784243" width="97.98" height="42.8" fill="black" /></mask><g mask="url(#71e9d)"><path d="M 1045,190 L 1045,261.25 L 807,261" fill="none" stroke="#F7CA18" stroke-width="2" stroke-linecap="round" stroke-linejoin="round" stroke-dasharray="0 0"/><path d="M 807,261 L 815.695652173913,266.75 L 815.695652173913,255.25 Z" fill="rgb(247,202,24)" stroke="#F7CA18" stroke-width="2" stroke-linecap="round" stroke-linejoin="round"/></g><g transform="translate(915.634980346015, 242.76242119784243)" width="91.98" height="36.8"><rect x="-2.5" y="0" width="96.97500562667847" height="39.29999923706055" fill="#F7CA18" rx="5"/><text text-decoration="none" x="0.002497186660768591" fill="rgb(255, 255, 255)" font-size="10pt" font-family="lt_regular"  y="14.40000057220459">Aprobaci&#xF3;n&#160;</text><text text-decoration="none" x="70.92750190734864" fill="rgb(255, 255, 255)" font-size="10pt" font-family="lt_regular"  y="14.40000057220459">del&#160;</text><text text-decoration="none" x="91.97750281333924" fill="rgb(255, 255, 255)" font-size="10pt" font-family="lt_regular"  y="14.40000057220459"></text><text text-decoration="none" x="11.127500762939455" fill="rgb(255, 255, 255)" font-size="10pt" font-family="lt_regular"  y="32.80000019073486">cronograma</text><text text-decoration="none" x="80.85249923706056" fill="#4b4b4b" font-size="10pt" font-family="noto_regular"  y="32.80000019073486"></text></g></g><g id="Yb53oCcRLUk"><mask id="e8841" x="471" y="285" width="256" height="149" maskUnits="userSpaceOnUse"><rect x="471" y="285" width="256" height="149" fill="white" /><rect x="478.9200364444741" y="286.6085252592593" width="118.91" height="24.4" fill="black" /></mask><g mask="url(#e8841)"><path d="M 485,420 L 485,298.75 L 713,299" fill="none" stroke="#F7CA18" stroke-width="2" stroke-linecap="round" stroke-linejoin="round" stroke-dasharray="0 0"/><path d="M 713,299 L 704.304347826087,293.25 L 704.304347826087,304.75 Z" fill="rgb(247,202,24)" stroke="#F7CA18" stroke-width="2" stroke-linecap="round" stroke-linejoin="round"/></g><g transform="translate(481.9200364444741, 289.6085252592593)" width="112.91" height="18.4"><rect x="-2.5" y="0" width="117.90000319480896" height="20.899999618530273" fill="#F7CA18" rx="5"/><text text-decoration="none" x="0.004998402595518314" fill="#ffffff" font-size="10pt" font-family="lt_regular"  y="14.40000057220459">Paciente&#160;</text><text text-decoration="none" x="53.86749930858612" fill="#ffffff" font-size="10pt" font-family="lt_regular"  y="14.40000057220459">registrado</text><text text-decoration="none" x="112.90500159740448" fill="#4b4b4b" font-size="10pt" font-family="noto_regular"  y="14.40000057220459"></text></g></g><g id="s5np8WO2fhg"><mask id="537b1" x="516" y="313" width="239" height="166" maskUnits="userSpaceOnUse"><rect x="516" y="313" width="239" height="166" fill="white" /><rect x="648.7401132245448" y="452.8" width="111.77" height="24.4" fill="black" /></mask><g mask="url(#537b1)"><path d="M 530,465 L 741.25,465 L 741,327" fill="none" stroke="#F7CA18" stroke-width="2" stroke-linecap="round" stroke-linejoin="round" stroke-dasharray="0 0"/><path d="M 530,465 L 538.695652173913,470.75 L 538.695652173913,459.25 Z" fill="rgb(247,202,24)" stroke="#F7CA18" stroke-width="2" stroke-linecap="round" stroke-linejoin="round"/><path d="M 741,327 L 735.25,335.69565217391306 L 746.75,335.69565217391306 Z" fill="rgb(247,202,24)" stroke="#F7CA18" stroke-width="2" stroke-linecap="round" stroke-linejoin="round"/></g><g transform="translate(651.7401132245448, 455.8)" width="105.77" height="18.4"><rect x="-2.5" y="0" width="110.7625024318695" height="20.899999618530273" fill="#F7CA18" rx="5"/><text text-decoration="none" x="0.0037487840652445925" fill="#ffffff" font-size="10pt" font-family="lt_regular"  y="14.40000057220459">Sheduel&#160;</text><text text-decoration="none" x="50.178749690055845" fill="#ffffff" font-size="10pt" font-family="lt_regular"  y="14.40000057220459">aprobado</text><text text-decoration="none" x="105.76625121593474" fill="#4b4b4b" font-size="10pt" font-family="noto_regular"  y="14.40000057220459"></text></g></g><g id="foZtusBEsYF"><mask id="6f13f" x="793" y="285" width="276" height="149" maskUnits="userSpaceOnUse"><rect x="793" y="285" width="276" height="149" fill="white" /><rect x="902.3399691966408" y="286.61388611976145" width="178.57" height="24.4" fill="black" /></mask><g mask="url(#6f13f)"><path d="M 1055,420 L 1055,298.75 L 807,299" fill="none" stroke="#F7CA18" stroke-width="2" stroke-linecap="round" stroke-linejoin="round" stroke-dasharray="0 0"/><path d="M 1055,420 L 1060.75,411.30434782608694 L 1049.25,411.30434782608694 Z" fill="rgb(247,202,24)" stroke="#F7CA18" stroke-width="2" stroke-linecap="round" stroke-linejoin="round"/><path d="M 807,299 L 815.695652173913,304.75 L 815.695652173913,293.25 Z" fill="rgb(247,202,24)" stroke="#F7CA18" stroke-width="2" stroke-linecap="round" stroke-linejoin="round"/></g><g transform="translate(905.3399691966408, 289.61388611976145)" width="172.57" height="18.4"><rect x="-2.5" y="0" width="177.5625033378601" height="20.899999618530273" fill="#F7CA18" rx="5"/><text text-decoration="none" x="0.0037483310699428785" fill="rgb(255, 255, 255)" font-size="10pt" font-family="lt_regular"  y="14.40000057220459">Notificaci&#xF3;n&#160;</text><text text-decoration="none" x="74.26624694824218" fill="rgb(255, 255, 255)" font-size="10pt" font-family="lt_regular"  y="14.40000057220459">de&#160;</text><text text-decoration="none" x="92.17874709129333" fill="rgb(255, 255, 255)" font-size="10pt" font-family="lt_regular"  y="14.40000057220459">programaci&#xF3;n</text><text text-decoration="none" x="172.56625166893005" fill="#4b4b4b" font-size="10pt" font-family="noto_regular"  y="14.40000057220459"></text></g></g><g id="44hChOTdPqk"><mask id="f7d15" x="765" y="313" width="259" height="166" maskUnits="userSpaceOnUse"><rect x="765" y="313" width="259" height="166" fill="white" /><rect x="768.4098867754552" y="452.8" width="113.93" height="24.4" fill="black" /></mask><g mask="url(#f7d15)"><path d="M 1010,465 L 778.75,465 L 779,327" fill="none" stroke="#F7CA18" stroke-width="2" stroke-linecap="round" stroke-linejoin="round" stroke-dasharray="0 0"/><path d="M 779,327 L 773.25,335.69565217391306 L 784.75,335.69565217391306 Z" fill="rgb(247,202,24)" stroke="#F7CA18" stroke-width="2" stroke-linecap="round" stroke-linejoin="round"/></g><g transform="translate(771.4098867754552, 455.8)" width="107.93" height="18.4"><rect x="-2.5" y="0" width="112.9250009059906" height="20.899999618530273" fill="#F7CA18" rx="5"/><text text-decoration="none" x="0.0024995470047031176" fill="#ffffff" font-size="10pt" font-family="lt_regular"  y="14.40000057220459">Horario&#160;</text><text text-decoration="none" x="48.2149989271164" fill="#ffffff" font-size="10pt" font-family="lt_regular"  y="14.40000057220459">disponible</text><text text-decoration="none" x="107.9275004529953" fill="#4b4b4b" font-size="10pt" font-family="noto_regular"  y="14.40000057220459"></text></g></g></svg>